<mxfile host="Electron" agent="Mozilla/5.0 (Windows NT 10.0; Win64; x64) AppleWebKit/537.36 (KHTML, like Gecko) draw.io/26.2.2 Chrome/134.0.6998.178 Electron/35.1.2 Safari/537.36" version="26.2.2">
  <diagram name="Page-1" id="jwppG6pNjvDqNfAC30XT">
    <mxGraphModel dx="1740" dy="1210" grid="0" gridSize="10" guides="1" tooltips="1" connect="0" arrows="1" fold="1" page="0" pageScale="1" pageWidth="850" pageHeight="1400" math="0" shadow="0">
      <root>
        <mxCell id="0" />
        <mxCell id="1" parent="0" />
        <mxCell id="gajWKS45nsIWPofKxddW-23" value="Customer" style="shape=table;startSize=30;container=1;collapsible=1;childLayout=tableLayout;fixedRows=1;rowLines=0;fontStyle=1;align=center;resizeLast=1;html=1;strokeColor=default;verticalAlign=middle;fontFamily=Verdana;fontSize=12;fontColor=default;fillColor=default;" parent="1" vertex="1">
          <mxGeometry x="383" y="868" width="245.19449869791652" height="151.1428513299852" as="geometry" />
        </mxCell>
        <mxCell id="gajWKS45nsIWPofKxddW-24" value="" style="shape=tableRow;horizontal=0;startSize=0;swimlaneHead=0;swimlaneBody=0;fillColor=none;collapsible=0;dropTarget=0;points=[[0,0.5],[1,0.5]];portConstraint=eastwest;top=0;left=0;right=0;bottom=1;strokeColor=default;align=center;verticalAlign=middle;fontFamily=Verdana;fontSize=12;fontColor=default;" parent="gajWKS45nsIWPofKxddW-23" vertex="1">
          <mxGeometry y="30" width="245.19449869791652" height="30" as="geometry" />
        </mxCell>
        <mxCell id="gajWKS45nsIWPofKxddW-25" value="PK" style="shape=partialRectangle;connectable=0;fillColor=none;top=0;left=0;bottom=0;right=0;fontStyle=1;overflow=hidden;whiteSpace=wrap;html=1;strokeColor=default;align=center;verticalAlign=middle;fontFamily=Verdana;fontSize=12;fontColor=default;" parent="gajWKS45nsIWPofKxddW-24" vertex="1">
          <mxGeometry width="30" height="30" as="geometry">
            <mxRectangle width="30" height="30" as="alternateBounds" />
          </mxGeometry>
        </mxCell>
        <mxCell id="gajWKS45nsIWPofKxddW-26" value="customer_id: int" style="shape=partialRectangle;connectable=0;fillColor=none;top=0;left=0;bottom=0;right=0;align=left;spacingLeft=6;fontStyle=5;overflow=hidden;whiteSpace=wrap;html=1;strokeColor=default;verticalAlign=middle;fontFamily=Verdana;fontSize=12;fontColor=default;" parent="gajWKS45nsIWPofKxddW-24" vertex="1">
          <mxGeometry x="30" width="215.19449869791652" height="30" as="geometry">
            <mxRectangle width="215.19449869791652" height="30" as="alternateBounds" />
          </mxGeometry>
        </mxCell>
        <mxCell id="gajWKS45nsIWPofKxddW-27" value="" style="shape=tableRow;horizontal=0;startSize=0;swimlaneHead=0;swimlaneBody=0;fillColor=none;collapsible=0;dropTarget=0;points=[[0,0.5],[1,0.5]];portConstraint=eastwest;top=0;left=0;right=0;bottom=0;strokeColor=default;align=center;verticalAlign=middle;fontFamily=Verdana;fontSize=12;fontColor=default;" parent="gajWKS45nsIWPofKxddW-23" vertex="1">
          <mxGeometry y="60" width="245.19449869791652" height="30" as="geometry" />
        </mxCell>
        <mxCell id="gajWKS45nsIWPofKxddW-28" value="" style="shape=partialRectangle;connectable=0;fillColor=none;top=0;left=0;bottom=0;right=0;editable=1;overflow=hidden;whiteSpace=wrap;html=1;strokeColor=default;align=center;verticalAlign=middle;fontFamily=Verdana;fontSize=12;fontColor=default;" parent="gajWKS45nsIWPofKxddW-27" vertex="1">
          <mxGeometry width="30" height="30" as="geometry">
            <mxRectangle width="30" height="30" as="alternateBounds" />
          </mxGeometry>
        </mxCell>
        <mxCell id="gajWKS45nsIWPofKxddW-29" value="customer_name: varchar(255)" style="shape=partialRectangle;connectable=0;fillColor=none;top=0;left=0;bottom=0;right=0;align=left;spacingLeft=6;overflow=hidden;whiteSpace=wrap;html=1;strokeColor=default;verticalAlign=middle;fontFamily=Verdana;fontSize=12;fontColor=default;" parent="gajWKS45nsIWPofKxddW-27" vertex="1">
          <mxGeometry x="30" width="215.19449869791652" height="30" as="geometry">
            <mxRectangle width="215.19449869791652" height="30" as="alternateBounds" />
          </mxGeometry>
        </mxCell>
        <mxCell id="gajWKS45nsIWPofKxddW-30" value="" style="shape=tableRow;horizontal=0;startSize=0;swimlaneHead=0;swimlaneBody=0;fillColor=none;collapsible=0;dropTarget=0;points=[[0,0.5],[1,0.5]];portConstraint=eastwest;top=0;left=0;right=0;bottom=0;strokeColor=default;align=center;verticalAlign=middle;fontFamily=Verdana;fontSize=12;fontColor=default;" parent="gajWKS45nsIWPofKxddW-23" vertex="1">
          <mxGeometry y="90" width="245.19449869791652" height="31" as="geometry" />
        </mxCell>
        <mxCell id="gajWKS45nsIWPofKxddW-31" value="" style="shape=partialRectangle;connectable=0;fillColor=none;top=0;left=0;bottom=0;right=0;editable=1;overflow=hidden;whiteSpace=wrap;html=1;strokeColor=default;align=center;verticalAlign=middle;fontFamily=Verdana;fontSize=12;fontColor=default;" parent="gajWKS45nsIWPofKxddW-30" vertex="1">
          <mxGeometry width="30" height="31" as="geometry">
            <mxRectangle width="30" height="31" as="alternateBounds" />
          </mxGeometry>
        </mxCell>
        <mxCell id="gajWKS45nsIWPofKxddW-32" value="contact_number: varchar(20)" style="shape=partialRectangle;connectable=0;fillColor=none;top=0;left=0;bottom=0;right=0;align=left;spacingLeft=6;overflow=hidden;whiteSpace=wrap;html=1;strokeColor=default;verticalAlign=middle;fontFamily=Verdana;fontSize=12;fontColor=default;" parent="gajWKS45nsIWPofKxddW-30" vertex="1">
          <mxGeometry x="30" width="215.19449869791652" height="31" as="geometry">
            <mxRectangle width="215.19449869791652" height="31" as="alternateBounds" />
          </mxGeometry>
        </mxCell>
        <mxCell id="gajWKS45nsIWPofKxddW-33" value="" style="shape=tableRow;horizontal=0;startSize=0;swimlaneHead=0;swimlaneBody=0;fillColor=none;collapsible=0;dropTarget=0;points=[[0,0.5],[1,0.5]];portConstraint=eastwest;top=0;left=0;right=0;bottom=0;strokeColor=default;align=center;verticalAlign=middle;fontFamily=Verdana;fontSize=12;fontColor=default;" parent="gajWKS45nsIWPofKxddW-23" vertex="1">
          <mxGeometry y="121" width="245.19449869791652" height="30" as="geometry" />
        </mxCell>
        <mxCell id="gajWKS45nsIWPofKxddW-34" value="" style="shape=partialRectangle;connectable=0;fillColor=none;top=0;left=0;bottom=0;right=0;editable=1;overflow=hidden;whiteSpace=wrap;html=1;strokeColor=default;align=center;verticalAlign=middle;fontFamily=Verdana;fontSize=12;fontColor=default;" parent="gajWKS45nsIWPofKxddW-33" vertex="1">
          <mxGeometry width="30" height="30" as="geometry">
            <mxRectangle width="30" height="30" as="alternateBounds" />
          </mxGeometry>
        </mxCell>
        <mxCell id="gajWKS45nsIWPofKxddW-35" value="email: varchar(100)" style="shape=partialRectangle;connectable=0;fillColor=none;top=0;left=0;bottom=0;right=0;align=left;spacingLeft=6;overflow=hidden;whiteSpace=wrap;html=1;strokeColor=default;verticalAlign=middle;fontFamily=Verdana;fontSize=12;fontColor=default;" parent="gajWKS45nsIWPofKxddW-33" vertex="1">
          <mxGeometry x="30" width="215.19449869791652" height="30" as="geometry">
            <mxRectangle width="215.19449869791652" height="30" as="alternateBounds" />
          </mxGeometry>
        </mxCell>
        <mxCell id="gajWKS45nsIWPofKxddW-36" value="Order" style="shape=table;startSize=30;container=1;collapsible=1;childLayout=tableLayout;fixedRows=1;rowLines=0;fontStyle=1;align=center;resizeLast=1;html=1;strokeColor=default;verticalAlign=middle;fontFamily=Verdana;fontSize=12;fontColor=default;fillColor=default;" parent="1" vertex="1">
          <mxGeometry x="736" y="857" width="245.19449869791652" height="213" as="geometry" />
        </mxCell>
        <mxCell id="gajWKS45nsIWPofKxddW-37" value="" style="shape=tableRow;horizontal=0;startSize=0;swimlaneHead=0;swimlaneBody=0;fillColor=none;collapsible=0;dropTarget=0;points=[[0,0.5],[1,0.5]];portConstraint=eastwest;top=0;left=0;right=0;bottom=1;strokeColor=default;align=center;verticalAlign=middle;fontFamily=Verdana;fontSize=12;fontColor=default;" parent="gajWKS45nsIWPofKxddW-36" vertex="1">
          <mxGeometry y="30" width="245.19449869791652" height="33" as="geometry" />
        </mxCell>
        <mxCell id="gajWKS45nsIWPofKxddW-38" value="PK" style="shape=partialRectangle;connectable=0;fillColor=none;top=0;left=0;bottom=0;right=0;fontStyle=1;overflow=hidden;whiteSpace=wrap;html=1;strokeColor=default;align=center;verticalAlign=middle;fontFamily=Verdana;fontSize=12;fontColor=default;" parent="gajWKS45nsIWPofKxddW-37" vertex="1">
          <mxGeometry width="30" height="33" as="geometry">
            <mxRectangle width="30" height="33" as="alternateBounds" />
          </mxGeometry>
        </mxCell>
        <mxCell id="gajWKS45nsIWPofKxddW-39" value="order_id: int" style="shape=partialRectangle;connectable=0;fillColor=none;top=0;left=0;bottom=0;right=0;align=left;spacingLeft=6;fontStyle=5;overflow=hidden;whiteSpace=wrap;html=1;strokeColor=default;verticalAlign=middle;fontFamily=Verdana;fontSize=12;fontColor=default;" parent="gajWKS45nsIWPofKxddW-37" vertex="1">
          <mxGeometry x="30" width="215.19449869791652" height="33" as="geometry">
            <mxRectangle width="215.19449869791652" height="33" as="alternateBounds" />
          </mxGeometry>
        </mxCell>
        <mxCell id="gajWKS45nsIWPofKxddW-40" value="" style="shape=tableRow;horizontal=0;startSize=0;swimlaneHead=0;swimlaneBody=0;fillColor=none;collapsible=0;dropTarget=0;points=[[0,0.5],[1,0.5]];portConstraint=eastwest;top=0;left=0;right=0;bottom=0;strokeColor=default;align=center;verticalAlign=middle;fontFamily=Verdana;fontSize=12;fontColor=default;" parent="gajWKS45nsIWPofKxddW-36" vertex="1">
          <mxGeometry y="63" width="245.19449869791652" height="30" as="geometry" />
        </mxCell>
        <mxCell id="gajWKS45nsIWPofKxddW-41" value="" style="shape=partialRectangle;connectable=0;fillColor=none;top=0;left=0;bottom=0;right=0;editable=1;overflow=hidden;whiteSpace=wrap;html=1;strokeColor=default;align=center;verticalAlign=middle;fontFamily=Verdana;fontSize=12;fontColor=default;" parent="gajWKS45nsIWPofKxddW-40" vertex="1">
          <mxGeometry width="30" height="30" as="geometry">
            <mxRectangle width="30" height="30" as="alternateBounds" />
          </mxGeometry>
        </mxCell>
        <mxCell id="gajWKS45nsIWPofKxddW-42" value="placed_at: datetime" style="shape=partialRectangle;connectable=0;fillColor=none;top=0;left=0;bottom=0;right=0;align=left;spacingLeft=6;overflow=hidden;whiteSpace=wrap;html=1;strokeColor=default;verticalAlign=middle;fontFamily=Verdana;fontSize=12;fontColor=default;" parent="gajWKS45nsIWPofKxddW-40" vertex="1">
          <mxGeometry x="30" width="215.19449869791652" height="30" as="geometry">
            <mxRectangle width="215.19449869791652" height="30" as="alternateBounds" />
          </mxGeometry>
        </mxCell>
        <mxCell id="gajWKS45nsIWPofKxddW-271" value="" style="shape=tableRow;horizontal=0;startSize=0;swimlaneHead=0;swimlaneBody=0;fillColor=none;collapsible=0;dropTarget=0;points=[[0,0.5],[1,0.5]];portConstraint=eastwest;top=0;left=0;right=0;bottom=0;strokeColor=default;align=center;verticalAlign=middle;fontFamily=Verdana;fontSize=12;fontColor=default;" parent="gajWKS45nsIWPofKxddW-36" vertex="1">
          <mxGeometry y="93" width="245.19449869791652" height="30" as="geometry" />
        </mxCell>
        <mxCell id="gajWKS45nsIWPofKxddW-272" value="FK" style="shape=partialRectangle;connectable=0;fillColor=none;top=0;left=0;bottom=0;right=0;editable=1;overflow=hidden;whiteSpace=wrap;html=1;strokeColor=default;align=center;verticalAlign=middle;fontFamily=Verdana;fontSize=12;fontColor=default;" parent="gajWKS45nsIWPofKxddW-271" vertex="1">
          <mxGeometry width="30" height="30" as="geometry">
            <mxRectangle width="30" height="30" as="alternateBounds" />
          </mxGeometry>
        </mxCell>
        <mxCell id="gajWKS45nsIWPofKxddW-273" value="customer_id: int" style="shape=partialRectangle;connectable=0;fillColor=none;top=0;left=0;bottom=0;right=0;align=left;spacingLeft=6;overflow=hidden;whiteSpace=wrap;html=1;strokeColor=default;verticalAlign=middle;fontFamily=Verdana;fontSize=12;fontColor=default;" parent="gajWKS45nsIWPofKxddW-271" vertex="1">
          <mxGeometry x="30" width="215.19449869791652" height="30" as="geometry">
            <mxRectangle width="215.19449869791652" height="30" as="alternateBounds" />
          </mxGeometry>
        </mxCell>
        <mxCell id="gajWKS45nsIWPofKxddW-43" value="" style="shape=tableRow;horizontal=0;startSize=0;swimlaneHead=0;swimlaneBody=0;fillColor=none;collapsible=0;dropTarget=0;points=[[0,0.5],[1,0.5]];portConstraint=eastwest;top=0;left=0;right=0;bottom=0;strokeColor=default;align=center;verticalAlign=middle;fontFamily=Verdana;fontSize=12;fontColor=default;" parent="gajWKS45nsIWPofKxddW-36" vertex="1">
          <mxGeometry y="123" width="245.19449869791652" height="30" as="geometry" />
        </mxCell>
        <mxCell id="gajWKS45nsIWPofKxddW-44" value="FK" style="shape=partialRectangle;connectable=0;fillColor=none;top=0;left=0;bottom=0;right=0;editable=1;overflow=hidden;whiteSpace=wrap;html=1;strokeColor=default;align=center;verticalAlign=middle;fontFamily=Verdana;fontSize=12;fontColor=default;" parent="gajWKS45nsIWPofKxddW-43" vertex="1">
          <mxGeometry width="30" height="30" as="geometry">
            <mxRectangle width="30" height="30" as="alternateBounds" />
          </mxGeometry>
        </mxCell>
        <mxCell id="gajWKS45nsIWPofKxddW-45" value="booking_id: int?" style="shape=partialRectangle;connectable=0;fillColor=none;top=0;left=0;bottom=0;right=0;align=left;spacingLeft=6;overflow=hidden;whiteSpace=wrap;html=1;strokeColor=default;verticalAlign=middle;fontFamily=Verdana;fontSize=12;fontColor=default;" parent="gajWKS45nsIWPofKxddW-43" vertex="1">
          <mxGeometry x="30" width="215.19449869791652" height="30" as="geometry">
            <mxRectangle width="215.19449869791652" height="30" as="alternateBounds" />
          </mxGeometry>
        </mxCell>
        <mxCell id="gajWKS45nsIWPofKxddW-46" value="" style="shape=tableRow;horizontal=0;startSize=0;swimlaneHead=0;swimlaneBody=0;fillColor=none;collapsible=0;dropTarget=0;points=[[0,0.5],[1,0.5]];portConstraint=eastwest;top=0;left=0;right=0;bottom=0;strokeColor=default;align=center;verticalAlign=middle;fontFamily=Verdana;fontSize=12;fontColor=default;" parent="gajWKS45nsIWPofKxddW-36" vertex="1">
          <mxGeometry y="153" width="245.19449869791652" height="30" as="geometry" />
        </mxCell>
        <mxCell id="gajWKS45nsIWPofKxddW-47" value="FK" style="shape=partialRectangle;connectable=0;fillColor=none;top=0;left=0;bottom=0;right=0;editable=1;overflow=hidden;whiteSpace=wrap;html=1;strokeColor=default;align=center;verticalAlign=middle;fontFamily=Verdana;fontSize=12;fontColor=default;" parent="gajWKS45nsIWPofKxddW-46" vertex="1">
          <mxGeometry width="30" height="30" as="geometry">
            <mxRectangle width="30" height="30" as="alternateBounds" />
          </mxGeometry>
        </mxCell>
        <mxCell id="gajWKS45nsIWPofKxddW-48" value="delivery_id: int?" style="shape=partialRectangle;connectable=0;fillColor=none;top=0;left=0;bottom=0;right=0;align=left;spacingLeft=6;overflow=hidden;whiteSpace=wrap;html=1;strokeColor=default;verticalAlign=middle;fontFamily=Verdana;fontSize=12;fontColor=default;" parent="gajWKS45nsIWPofKxddW-46" vertex="1">
          <mxGeometry x="30" width="215.19449869791652" height="30" as="geometry">
            <mxRectangle width="215.19449869791652" height="30" as="alternateBounds" />
          </mxGeometry>
        </mxCell>
        <mxCell id="gajWKS45nsIWPofKxddW-49" value="" style="shape=tableRow;horizontal=0;startSize=0;swimlaneHead=0;swimlaneBody=0;fillColor=none;collapsible=0;dropTarget=0;points=[[0,0.5],[1,0.5]];portConstraint=eastwest;top=0;left=0;right=0;bottom=0;strokeColor=default;align=center;verticalAlign=middle;fontFamily=Verdana;fontSize=12;fontColor=default;" parent="gajWKS45nsIWPofKxddW-36" vertex="1">
          <mxGeometry y="183" width="245.19449869791652" height="30" as="geometry" />
        </mxCell>
        <mxCell id="gajWKS45nsIWPofKxddW-50" value="FK" style="shape=partialRectangle;connectable=0;fillColor=none;top=0;left=0;bottom=0;right=0;editable=1;overflow=hidden;whiteSpace=wrap;html=1;strokeColor=default;align=center;verticalAlign=middle;fontFamily=Verdana;fontSize=12;fontColor=default;" parent="gajWKS45nsIWPofKxddW-49" vertex="1">
          <mxGeometry width="30" height="30" as="geometry">
            <mxRectangle width="30" height="30" as="alternateBounds" />
          </mxGeometry>
        </mxCell>
        <mxCell id="gajWKS45nsIWPofKxddW-51" value="subtotal: real" style="shape=partialRectangle;connectable=0;fillColor=none;top=0;left=0;bottom=0;right=0;align=left;spacingLeft=6;overflow=hidden;whiteSpace=wrap;html=1;strokeColor=default;verticalAlign=middle;fontFamily=Verdana;fontSize=12;fontColor=default;" parent="gajWKS45nsIWPofKxddW-49" vertex="1">
          <mxGeometry x="30" width="215.19449869791652" height="30" as="geometry">
            <mxRectangle width="215.19449869791652" height="30" as="alternateBounds" />
          </mxGeometry>
        </mxCell>
        <mxCell id="gajWKS45nsIWPofKxddW-52" value="Booking" style="shape=table;startSize=30;container=1;collapsible=1;childLayout=tableLayout;fixedRows=1;rowLines=0;fontStyle=1;align=center;resizeLast=1;html=1;strokeColor=default;verticalAlign=middle;fontFamily=Verdana;fontSize=12;fontColor=default;fillColor=default;" parent="1" vertex="1">
          <mxGeometry x="740" y="1151" width="245.19449869791652" height="246" as="geometry" />
        </mxCell>
        <mxCell id="gajWKS45nsIWPofKxddW-53" value="" style="shape=tableRow;horizontal=0;startSize=0;swimlaneHead=0;swimlaneBody=0;fillColor=none;collapsible=0;dropTarget=0;points=[[0,0.5],[1,0.5]];portConstraint=eastwest;top=0;left=0;right=0;bottom=1;strokeColor=default;align=center;verticalAlign=middle;fontFamily=Verdana;fontSize=12;fontColor=default;" parent="gajWKS45nsIWPofKxddW-52" vertex="1">
          <mxGeometry y="30" width="245.19449869791652" height="30" as="geometry" />
        </mxCell>
        <mxCell id="gajWKS45nsIWPofKxddW-54" value="PK" style="shape=partialRectangle;connectable=0;fillColor=none;top=0;left=0;bottom=0;right=0;fontStyle=1;overflow=hidden;whiteSpace=wrap;html=1;strokeColor=default;align=center;verticalAlign=middle;fontFamily=Verdana;fontSize=12;fontColor=default;" parent="gajWKS45nsIWPofKxddW-53" vertex="1">
          <mxGeometry width="30" height="30" as="geometry">
            <mxRectangle width="30" height="30" as="alternateBounds" />
          </mxGeometry>
        </mxCell>
        <mxCell id="gajWKS45nsIWPofKxddW-55" value="booking_id: int" style="shape=partialRectangle;connectable=0;fillColor=none;top=0;left=0;bottom=0;right=0;align=left;spacingLeft=6;fontStyle=5;overflow=hidden;whiteSpace=wrap;html=1;strokeColor=default;verticalAlign=middle;fontFamily=Verdana;fontSize=12;fontColor=default;" parent="gajWKS45nsIWPofKxddW-53" vertex="1">
          <mxGeometry x="30" width="215.19449869791652" height="30" as="geometry">
            <mxRectangle width="215.19449869791652" height="30" as="alternateBounds" />
          </mxGeometry>
        </mxCell>
        <mxCell id="gajWKS45nsIWPofKxddW-56" value="" style="shape=tableRow;horizontal=0;startSize=0;swimlaneHead=0;swimlaneBody=0;fillColor=none;collapsible=0;dropTarget=0;points=[[0,0.5],[1,0.5]];portConstraint=eastwest;top=0;left=0;right=0;bottom=0;strokeColor=default;align=center;verticalAlign=middle;fontFamily=Verdana;fontSize=12;fontColor=default;" parent="gajWKS45nsIWPofKxddW-52" vertex="1">
          <mxGeometry y="60" width="245.19449869791652" height="30" as="geometry" />
        </mxCell>
        <mxCell id="gajWKS45nsIWPofKxddW-57" value="FK" style="shape=partialRectangle;connectable=0;fillColor=none;top=0;left=0;bottom=0;right=0;editable=1;overflow=hidden;whiteSpace=wrap;html=1;strokeColor=default;align=center;verticalAlign=middle;fontFamily=Verdana;fontSize=12;fontColor=default;" parent="gajWKS45nsIWPofKxddW-56" vertex="1">
          <mxGeometry width="30" height="30" as="geometry">
            <mxRectangle width="30" height="30" as="alternateBounds" />
          </mxGeometry>
        </mxCell>
        <mxCell id="gajWKS45nsIWPofKxddW-58" value="customer_id: int" style="shape=partialRectangle;connectable=0;fillColor=none;top=0;left=0;bottom=0;right=0;align=left;spacingLeft=6;overflow=hidden;whiteSpace=wrap;html=1;strokeColor=default;verticalAlign=middle;fontFamily=Verdana;fontSize=12;fontColor=default;" parent="gajWKS45nsIWPofKxddW-56" vertex="1">
          <mxGeometry x="30" width="215.19449869791652" height="30" as="geometry">
            <mxRectangle width="215.19449869791652" height="30" as="alternateBounds" />
          </mxGeometry>
        </mxCell>
        <mxCell id="gajWKS45nsIWPofKxddW-288" value="" style="shape=tableRow;horizontal=0;startSize=0;swimlaneHead=0;swimlaneBody=0;fillColor=none;collapsible=0;dropTarget=0;points=[[0,0.5],[1,0.5]];portConstraint=eastwest;top=0;left=0;right=0;bottom=0;strokeColor=default;align=center;verticalAlign=middle;fontFamily=Verdana;fontSize=12;fontColor=default;" parent="gajWKS45nsIWPofKxddW-52" vertex="1">
          <mxGeometry y="90" width="245.19449869791652" height="30" as="geometry" />
        </mxCell>
        <mxCell id="gajWKS45nsIWPofKxddW-289" value="" style="shape=partialRectangle;connectable=0;fillColor=none;top=0;left=0;bottom=0;right=0;editable=1;overflow=hidden;whiteSpace=wrap;html=1;strokeColor=default;align=center;verticalAlign=middle;fontFamily=Verdana;fontSize=12;fontColor=default;" parent="gajWKS45nsIWPofKxddW-288" vertex="1">
          <mxGeometry width="30" height="30" as="geometry">
            <mxRectangle width="30" height="30" as="alternateBounds" />
          </mxGeometry>
        </mxCell>
        <mxCell id="gajWKS45nsIWPofKxddW-290" value="table_number: int" style="shape=partialRectangle;connectable=0;fillColor=none;top=0;left=0;bottom=0;right=0;align=left;spacingLeft=6;overflow=hidden;whiteSpace=wrap;html=1;strokeColor=default;verticalAlign=middle;fontFamily=Verdana;fontSize=12;fontColor=default;" parent="gajWKS45nsIWPofKxddW-288" vertex="1">
          <mxGeometry x="30" width="215.19449869791652" height="30" as="geometry">
            <mxRectangle width="215.19449869791652" height="30" as="alternateBounds" />
          </mxGeometry>
        </mxCell>
        <mxCell id="gajWKS45nsIWPofKxddW-68" value="" style="shape=tableRow;horizontal=0;startSize=0;swimlaneHead=0;swimlaneBody=0;fillColor=none;collapsible=0;dropTarget=0;points=[[0,0.5],[1,0.5]];portConstraint=eastwest;top=0;left=0;right=0;bottom=0;strokeColor=default;align=center;verticalAlign=middle;fontFamily=Verdana;fontSize=12;fontColor=default;" parent="gajWKS45nsIWPofKxddW-52" vertex="1">
          <mxGeometry y="120" width="245.19449869791652" height="30" as="geometry" />
        </mxCell>
        <mxCell id="gajWKS45nsIWPofKxddW-69" value="" style="shape=partialRectangle;connectable=0;fillColor=none;top=0;left=0;bottom=0;right=0;editable=1;overflow=hidden;whiteSpace=wrap;html=1;strokeColor=default;align=center;verticalAlign=middle;fontFamily=Verdana;fontSize=12;fontColor=default;" parent="gajWKS45nsIWPofKxddW-68" vertex="1">
          <mxGeometry width="30" height="30" as="geometry">
            <mxRectangle width="30" height="30" as="alternateBounds" />
          </mxGeometry>
        </mxCell>
        <mxCell id="gajWKS45nsIWPofKxddW-70" value="booking_slot: datetime" style="shape=partialRectangle;connectable=0;fillColor=none;top=0;left=0;bottom=0;right=0;align=left;spacingLeft=6;overflow=hidden;whiteSpace=wrap;html=1;strokeColor=default;verticalAlign=middle;fontFamily=Verdana;fontSize=12;fontColor=default;" parent="gajWKS45nsIWPofKxddW-68" vertex="1">
          <mxGeometry x="30" width="215.19449869791652" height="30" as="geometry">
            <mxRectangle width="215.19449869791652" height="30" as="alternateBounds" />
          </mxGeometry>
        </mxCell>
        <mxCell id="8sn3Q_5MyFv1wJwUkNcD-118" value="" style="shape=tableRow;horizontal=0;startSize=0;swimlaneHead=0;swimlaneBody=0;fillColor=none;collapsible=0;dropTarget=0;points=[[0,0.5],[1,0.5]];portConstraint=eastwest;top=0;left=0;right=0;bottom=0;strokeColor=default;align=center;verticalAlign=middle;fontFamily=Verdana;fontSize=12;fontColor=default;" parent="gajWKS45nsIWPofKxddW-52" vertex="1">
          <mxGeometry y="150" width="245.19449869791652" height="36" as="geometry" />
        </mxCell>
        <mxCell id="8sn3Q_5MyFv1wJwUkNcD-119" value="" style="shape=partialRectangle;connectable=0;fillColor=none;top=0;left=0;bottom=0;right=0;editable=1;overflow=hidden;whiteSpace=wrap;html=1;strokeColor=default;align=center;verticalAlign=middle;fontFamily=Verdana;fontSize=12;fontColor=default;" parent="8sn3Q_5MyFv1wJwUkNcD-118" vertex="1">
          <mxGeometry width="30" height="36" as="geometry">
            <mxRectangle width="30" height="36" as="alternateBounds" />
          </mxGeometry>
        </mxCell>
        <mxCell id="8sn3Q_5MyFv1wJwUkNcD-120" value="booking_slot_date: date {performance}" style="shape=partialRectangle;connectable=0;fillColor=none;top=0;left=0;bottom=0;right=0;align=left;spacingLeft=6;overflow=hidden;whiteSpace=wrap;html=1;strokeColor=default;verticalAlign=middle;fontFamily=Verdana;fontSize=12;fontColor=default;" parent="8sn3Q_5MyFv1wJwUkNcD-118" vertex="1">
          <mxGeometry x="30" width="215.19449869791652" height="36" as="geometry">
            <mxRectangle width="215.19449869791652" height="36" as="alternateBounds" />
          </mxGeometry>
        </mxCell>
        <mxCell id="gajWKS45nsIWPofKxddW-71" value="" style="shape=tableRow;horizontal=0;startSize=0;swimlaneHead=0;swimlaneBody=0;fillColor=none;collapsible=0;dropTarget=0;points=[[0,0.5],[1,0.5]];portConstraint=eastwest;top=0;left=0;right=0;bottom=0;strokeColor=default;align=center;verticalAlign=middle;fontFamily=Verdana;fontSize=12;fontColor=default;" parent="gajWKS45nsIWPofKxddW-52" vertex="1">
          <mxGeometry y="186" width="245.19449869791652" height="30" as="geometry" />
        </mxCell>
        <mxCell id="gajWKS45nsIWPofKxddW-72" value="" style="shape=partialRectangle;connectable=0;fillColor=none;top=0;left=0;bottom=0;right=0;editable=1;overflow=hidden;whiteSpace=wrap;html=1;strokeColor=default;align=center;verticalAlign=middle;fontFamily=Verdana;fontSize=12;fontColor=default;" parent="gajWKS45nsIWPofKxddW-71" vertex="1">
          <mxGeometry width="30" height="30" as="geometry">
            <mxRectangle width="30" height="30" as="alternateBounds" />
          </mxGeometry>
        </mxCell>
        <mxCell id="gajWKS45nsIWPofKxddW-73" value="diners_count: int {default 1}" style="shape=partialRectangle;connectable=0;fillColor=none;top=0;left=0;bottom=0;right=0;align=left;spacingLeft=6;overflow=hidden;whiteSpace=wrap;html=1;strokeColor=default;verticalAlign=middle;fontFamily=Verdana;fontSize=12;fontColor=default;" parent="gajWKS45nsIWPofKxddW-71" vertex="1">
          <mxGeometry x="30" width="215.19449869791652" height="30" as="geometry">
            <mxRectangle width="215.19449869791652" height="30" as="alternateBounds" />
          </mxGeometry>
        </mxCell>
        <mxCell id="gajWKS45nsIWPofKxddW-282" value="" style="shape=tableRow;horizontal=0;startSize=0;swimlaneHead=0;swimlaneBody=0;fillColor=none;collapsible=0;dropTarget=0;points=[[0,0.5],[1,0.5]];portConstraint=eastwest;top=0;left=0;right=0;bottom=0;strokeColor=default;align=center;verticalAlign=middle;fontFamily=Verdana;fontSize=12;fontColor=default;" parent="gajWKS45nsIWPofKxddW-52" vertex="1">
          <mxGeometry y="216" width="245.19449869791652" height="30" as="geometry" />
        </mxCell>
        <mxCell id="gajWKS45nsIWPofKxddW-283" value="FK" style="shape=partialRectangle;connectable=0;fillColor=none;top=0;left=0;bottom=0;right=0;editable=1;overflow=hidden;whiteSpace=wrap;html=1;strokeColor=default;align=center;verticalAlign=middle;fontFamily=Verdana;fontSize=12;fontColor=default;" parent="gajWKS45nsIWPofKxddW-282" vertex="1">
          <mxGeometry width="30" height="30" as="geometry">
            <mxRectangle width="30" height="30" as="alternateBounds" />
          </mxGeometry>
        </mxCell>
        <mxCell id="gajWKS45nsIWPofKxddW-284" value="assigned_employee_id: int?" style="shape=partialRectangle;connectable=0;fillColor=none;top=0;left=0;bottom=0;right=0;align=left;spacingLeft=6;overflow=hidden;whiteSpace=wrap;html=1;strokeColor=default;verticalAlign=middle;fontFamily=Verdana;fontSize=12;fontColor=default;" parent="gajWKS45nsIWPofKxddW-282" vertex="1">
          <mxGeometry x="30" width="215.19449869791652" height="30" as="geometry">
            <mxRectangle width="215.19449869791652" height="30" as="alternateBounds" />
          </mxGeometry>
        </mxCell>
        <mxCell id="gajWKS45nsIWPofKxddW-74" value="Delivery" style="shape=table;startSize=30;container=1;collapsible=1;childLayout=tableLayout;fixedRows=1;rowLines=0;fontStyle=1;align=center;resizeLast=1;html=1;strokeColor=default;verticalAlign=middle;fontFamily=Verdana;fontSize=12;fontColor=default;fillColor=default;" parent="1" vertex="1">
          <mxGeometry x="736" y="654" width="245.19449869791652" height="120" as="geometry" />
        </mxCell>
        <mxCell id="gajWKS45nsIWPofKxddW-75" value="" style="shape=tableRow;horizontal=0;startSize=0;swimlaneHead=0;swimlaneBody=0;fillColor=none;collapsible=0;dropTarget=0;points=[[0,0.5],[1,0.5]];portConstraint=eastwest;top=0;left=0;right=0;bottom=1;strokeColor=default;align=center;verticalAlign=middle;fontFamily=Verdana;fontSize=12;fontColor=default;" parent="gajWKS45nsIWPofKxddW-74" vertex="1">
          <mxGeometry y="30" width="245.19449869791652" height="30" as="geometry" />
        </mxCell>
        <mxCell id="gajWKS45nsIWPofKxddW-76" value="PK" style="shape=partialRectangle;connectable=0;fillColor=none;top=0;left=0;bottom=0;right=0;fontStyle=1;overflow=hidden;whiteSpace=wrap;html=1;strokeColor=default;align=center;verticalAlign=middle;fontFamily=Verdana;fontSize=12;fontColor=default;" parent="gajWKS45nsIWPofKxddW-75" vertex="1">
          <mxGeometry width="30" height="30" as="geometry">
            <mxRectangle width="30" height="30" as="alternateBounds" />
          </mxGeometry>
        </mxCell>
        <mxCell id="gajWKS45nsIWPofKxddW-77" value="order_id: int" style="shape=partialRectangle;connectable=0;fillColor=none;top=0;left=0;bottom=0;right=0;align=left;spacingLeft=6;fontStyle=5;overflow=hidden;whiteSpace=wrap;html=1;strokeColor=default;verticalAlign=middle;fontFamily=Verdana;fontSize=12;fontColor=default;" parent="gajWKS45nsIWPofKxddW-75" vertex="1">
          <mxGeometry x="30" width="215.19449869791652" height="30" as="geometry">
            <mxRectangle width="215.19449869791652" height="30" as="alternateBounds" />
          </mxGeometry>
        </mxCell>
        <mxCell id="gajWKS45nsIWPofKxddW-78" value="" style="shape=tableRow;horizontal=0;startSize=0;swimlaneHead=0;swimlaneBody=0;fillColor=none;collapsible=0;dropTarget=0;points=[[0,0.5],[1,0.5]];portConstraint=eastwest;top=0;left=0;right=0;bottom=0;strokeColor=default;align=center;verticalAlign=middle;fontFamily=Verdana;fontSize=12;fontColor=default;" parent="gajWKS45nsIWPofKxddW-74" vertex="1">
          <mxGeometry y="60" width="245.19449869791652" height="30" as="geometry" />
        </mxCell>
        <mxCell id="gajWKS45nsIWPofKxddW-79" value="FK" style="shape=partialRectangle;connectable=0;fillColor=none;top=0;left=0;bottom=0;right=0;editable=1;overflow=hidden;whiteSpace=wrap;html=1;strokeColor=default;align=center;verticalAlign=middle;fontFamily=Verdana;fontSize=12;fontColor=default;" parent="gajWKS45nsIWPofKxddW-78" vertex="1">
          <mxGeometry width="30" height="30" as="geometry">
            <mxRectangle width="30" height="30" as="alternateBounds" />
          </mxGeometry>
        </mxCell>
        <mxCell id="gajWKS45nsIWPofKxddW-80" value="delivery_address_id: int" style="shape=partialRectangle;connectable=0;fillColor=none;top=0;left=0;bottom=0;right=0;align=left;spacingLeft=6;overflow=hidden;whiteSpace=wrap;html=1;strokeColor=default;verticalAlign=middle;fontFamily=Verdana;fontSize=12;fontColor=default;" parent="gajWKS45nsIWPofKxddW-78" vertex="1">
          <mxGeometry x="30" width="215.19449869791652" height="30" as="geometry">
            <mxRectangle width="215.19449869791652" height="30" as="alternateBounds" />
          </mxGeometry>
        </mxCell>
        <mxCell id="gajWKS45nsIWPofKxddW-84" value="" style="shape=tableRow;horizontal=0;startSize=0;swimlaneHead=0;swimlaneBody=0;fillColor=none;collapsible=0;dropTarget=0;points=[[0,0.5],[1,0.5]];portConstraint=eastwest;top=0;left=0;right=0;bottom=0;strokeColor=default;align=center;verticalAlign=middle;fontFamily=Verdana;fontSize=12;fontColor=default;" parent="gajWKS45nsIWPofKxddW-74" vertex="1">
          <mxGeometry y="90" width="245.19449869791652" height="30" as="geometry" />
        </mxCell>
        <mxCell id="gajWKS45nsIWPofKxddW-85" value="FK" style="shape=partialRectangle;connectable=0;fillColor=none;top=0;left=0;bottom=0;right=0;editable=1;overflow=hidden;whiteSpace=wrap;html=1;strokeColor=default;align=center;verticalAlign=middle;fontFamily=Verdana;fontSize=12;fontColor=default;" parent="gajWKS45nsIWPofKxddW-84" vertex="1">
          <mxGeometry width="30" height="30" as="geometry">
            <mxRectangle width="30" height="30" as="alternateBounds" />
          </mxGeometry>
        </mxCell>
        <mxCell id="gajWKS45nsIWPofKxddW-86" value="delivery_cost: real" style="shape=partialRectangle;connectable=0;fillColor=none;top=0;left=0;bottom=0;right=0;align=left;spacingLeft=6;overflow=hidden;whiteSpace=wrap;html=1;strokeColor=default;verticalAlign=middle;fontFamily=Verdana;fontSize=12;fontColor=default;" parent="gajWKS45nsIWPofKxddW-84" vertex="1">
          <mxGeometry x="30" width="215.19449869791652" height="30" as="geometry">
            <mxRectangle width="215.19449869791652" height="30" as="alternateBounds" />
          </mxGeometry>
        </mxCell>
        <mxCell id="gajWKS45nsIWPofKxddW-106" value="Delivery_Address" style="shape=table;startSize=30;container=1;collapsible=1;childLayout=tableLayout;fixedRows=1;rowLines=0;fontStyle=1;align=center;resizeLast=1;html=1;fontFamily=Verdana;" parent="1" vertex="1">
          <mxGeometry x="210.99999999999997" y="654" width="426.9697117660985" height="144.24999128069226" as="geometry" />
        </mxCell>
        <mxCell id="gajWKS45nsIWPofKxddW-107" value="" style="shape=tableRow;horizontal=0;startSize=0;swimlaneHead=0;swimlaneBody=0;fillColor=none;collapsible=0;dropTarget=0;points=[[0,0.5],[1,0.5]];portConstraint=eastwest;top=0;left=0;right=0;bottom=1;fontFamily=Verdana;" parent="gajWKS45nsIWPofKxddW-106" vertex="1">
          <mxGeometry y="30" width="426.9697117660985" height="30" as="geometry" />
        </mxCell>
        <mxCell id="gajWKS45nsIWPofKxddW-108" value="PK" style="shape=partialRectangle;connectable=0;fillColor=none;top=0;left=0;bottom=0;right=0;fontStyle=1;overflow=hidden;whiteSpace=wrap;html=1;fontFamily=Verdana;" parent="gajWKS45nsIWPofKxddW-107" vertex="1">
          <mxGeometry width="30" height="30" as="geometry">
            <mxRectangle width="30" height="30" as="alternateBounds" />
          </mxGeometry>
        </mxCell>
        <mxCell id="gajWKS45nsIWPofKxddW-109" value="delivery_address_id: int" style="shape=partialRectangle;connectable=0;fillColor=none;top=0;left=0;bottom=0;right=0;align=left;spacingLeft=6;fontStyle=5;overflow=hidden;whiteSpace=wrap;html=1;fontFamily=Verdana;" parent="gajWKS45nsIWPofKxddW-107" vertex="1">
          <mxGeometry x="30" width="396.9697117660985" height="30" as="geometry">
            <mxRectangle width="396.9697117660985" height="30" as="alternateBounds" />
          </mxGeometry>
        </mxCell>
        <mxCell id="gajWKS45nsIWPofKxddW-110" value="" style="shape=tableRow;horizontal=0;startSize=0;swimlaneHead=0;swimlaneBody=0;fillColor=none;collapsible=0;dropTarget=0;points=[[0,0.5],[1,0.5]];portConstraint=eastwest;top=0;left=0;right=0;bottom=0;fontFamily=Verdana;" parent="gajWKS45nsIWPofKxddW-106" vertex="1">
          <mxGeometry y="60" width="426.9697117660985" height="28" as="geometry" />
        </mxCell>
        <mxCell id="gajWKS45nsIWPofKxddW-111" value="FK" style="shape=partialRectangle;connectable=0;fillColor=none;top=0;left=0;bottom=0;right=0;editable=1;overflow=hidden;whiteSpace=wrap;html=1;fontFamily=Verdana;" parent="gajWKS45nsIWPofKxddW-110" vertex="1">
          <mxGeometry width="30" height="28" as="geometry">
            <mxRectangle width="30" height="28" as="alternateBounds" />
          </mxGeometry>
        </mxCell>
        <mxCell id="gajWKS45nsIWPofKxddW-112" value="customer_id: int" style="shape=partialRectangle;connectable=0;fillColor=none;top=0;left=0;bottom=0;right=0;align=left;spacingLeft=6;overflow=hidden;whiteSpace=wrap;html=1;fontFamily=Verdana;" parent="gajWKS45nsIWPofKxddW-110" vertex="1">
          <mxGeometry x="30" width="396.9697117660985" height="28" as="geometry">
            <mxRectangle width="396.9697117660985" height="28" as="alternateBounds" />
          </mxGeometry>
        </mxCell>
        <mxCell id="gajWKS45nsIWPofKxddW-113" value="" style="shape=tableRow;horizontal=0;startSize=0;swimlaneHead=0;swimlaneBody=0;fillColor=none;collapsible=0;dropTarget=0;points=[[0,0.5],[1,0.5]];portConstraint=eastwest;top=0;left=0;right=0;bottom=0;fontFamily=Verdana;" parent="gajWKS45nsIWPofKxddW-106" vertex="1">
          <mxGeometry y="88" width="426.9697117660985" height="28" as="geometry" />
        </mxCell>
        <mxCell id="gajWKS45nsIWPofKxddW-114" value="" style="shape=partialRectangle;connectable=0;fillColor=none;top=0;left=0;bottom=0;right=0;editable=1;overflow=hidden;whiteSpace=wrap;html=1;fontFamily=Verdana;" parent="gajWKS45nsIWPofKxddW-113" vertex="1">
          <mxGeometry width="30" height="28" as="geometry">
            <mxRectangle width="30" height="28" as="alternateBounds" />
          </mxGeometry>
        </mxCell>
        <mxCell id="gajWKS45nsIWPofKxddW-115" value="postal_code: varchar(20)" style="shape=partialRectangle;connectable=0;fillColor=none;top=0;left=0;bottom=0;right=0;align=left;spacingLeft=6;overflow=hidden;whiteSpace=wrap;html=1;fontFamily=Verdana;" parent="gajWKS45nsIWPofKxddW-113" vertex="1">
          <mxGeometry x="30" width="396.9697117660985" height="28" as="geometry">
            <mxRectangle width="396.9697117660985" height="28" as="alternateBounds" />
          </mxGeometry>
        </mxCell>
        <mxCell id="gajWKS45nsIWPofKxddW-116" value="" style="shape=tableRow;horizontal=0;startSize=0;swimlaneHead=0;swimlaneBody=0;fillColor=none;collapsible=0;dropTarget=0;points=[[0,0.5],[1,0.5]];portConstraint=eastwest;top=0;left=0;right=0;bottom=0;fontFamily=Verdana;" parent="gajWKS45nsIWPofKxddW-106" vertex="1">
          <mxGeometry y="116" width="426.9697117660985" height="28" as="geometry" />
        </mxCell>
        <mxCell id="gajWKS45nsIWPofKxddW-117" value="" style="shape=partialRectangle;connectable=0;fillColor=none;top=0;left=0;bottom=0;right=0;editable=1;overflow=hidden;whiteSpace=wrap;html=1;fontFamily=Verdana;" parent="gajWKS45nsIWPofKxddW-116" vertex="1">
          <mxGeometry width="30" height="28" as="geometry">
            <mxRectangle width="30" height="28" as="alternateBounds" />
          </mxGeometry>
        </mxCell>
        <mxCell id="gajWKS45nsIWPofKxddW-118" value="street: varchar(255)" style="shape=partialRectangle;connectable=0;fillColor=none;top=0;left=0;bottom=0;right=0;align=left;spacingLeft=6;overflow=hidden;whiteSpace=wrap;html=1;fontFamily=Verdana;" parent="gajWKS45nsIWPofKxddW-116" vertex="1">
          <mxGeometry x="30" width="396.9697117660985" height="28" as="geometry">
            <mxRectangle width="396.9697117660985" height="28" as="alternateBounds" />
          </mxGeometry>
        </mxCell>
        <mxCell id="gajWKS45nsIWPofKxddW-157" value="Staff" style="shape=table;startSize=30;container=1;collapsible=1;childLayout=tableLayout;fixedRows=1;rowLines=0;fontStyle=1;align=center;resizeLast=1;html=1;strokeColor=default;verticalAlign=middle;fontFamily=Verdana;fontSize=12;fontColor=default;fillColor=default;" parent="1" vertex="1">
          <mxGeometry x="1098" y="1104" width="340.6130134828629" height="233" as="geometry" />
        </mxCell>
        <mxCell id="gajWKS45nsIWPofKxddW-158" value="" style="shape=tableRow;horizontal=0;startSize=0;swimlaneHead=0;swimlaneBody=0;fillColor=none;collapsible=0;dropTarget=0;points=[[0,0.5],[1,0.5]];portConstraint=eastwest;top=0;left=0;right=0;bottom=1;strokeColor=default;align=center;verticalAlign=middle;fontFamily=Verdana;fontSize=12;fontColor=default;" parent="gajWKS45nsIWPofKxddW-157" vertex="1">
          <mxGeometry y="30" width="340.6130134828629" height="33" as="geometry" />
        </mxCell>
        <mxCell id="gajWKS45nsIWPofKxddW-159" value="PK" style="shape=partialRectangle;connectable=0;fillColor=none;top=0;left=0;bottom=0;right=0;fontStyle=1;overflow=hidden;whiteSpace=wrap;html=1;strokeColor=default;align=center;verticalAlign=middle;fontFamily=Verdana;fontSize=12;fontColor=default;" parent="gajWKS45nsIWPofKxddW-158" vertex="1">
          <mxGeometry width="30" height="33" as="geometry">
            <mxRectangle width="30" height="33" as="alternateBounds" />
          </mxGeometry>
        </mxCell>
        <mxCell id="gajWKS45nsIWPofKxddW-160" value="employee_id: int" style="shape=partialRectangle;connectable=0;fillColor=none;top=0;left=0;bottom=0;right=0;align=left;spacingLeft=6;fontStyle=5;overflow=hidden;whiteSpace=wrap;html=1;strokeColor=default;verticalAlign=middle;fontFamily=Verdana;fontSize=12;fontColor=default;" parent="gajWKS45nsIWPofKxddW-158" vertex="1">
          <mxGeometry x="30" width="310.6130134828629" height="33" as="geometry">
            <mxRectangle width="310.6130134828629" height="33" as="alternateBounds" />
          </mxGeometry>
        </mxCell>
        <mxCell id="gajWKS45nsIWPofKxddW-161" value="" style="shape=tableRow;horizontal=0;startSize=0;swimlaneHead=0;swimlaneBody=0;fillColor=none;collapsible=0;dropTarget=0;points=[[0,0.5],[1,0.5]];portConstraint=eastwest;top=0;left=0;right=0;bottom=0;strokeColor=default;align=center;verticalAlign=middle;fontFamily=Verdana;fontSize=12;fontColor=default;" parent="gajWKS45nsIWPofKxddW-157" vertex="1">
          <mxGeometry y="63" width="340.6130134828629" height="30" as="geometry" />
        </mxCell>
        <mxCell id="gajWKS45nsIWPofKxddW-162" value="" style="shape=partialRectangle;connectable=0;fillColor=none;top=0;left=0;bottom=0;right=0;editable=1;overflow=hidden;whiteSpace=wrap;html=1;strokeColor=default;align=center;verticalAlign=middle;fontFamily=Verdana;fontSize=12;fontColor=default;" parent="gajWKS45nsIWPofKxddW-161" vertex="1">
          <mxGeometry width="30" height="30" as="geometry">
            <mxRectangle width="30" height="30" as="alternateBounds" />
          </mxGeometry>
        </mxCell>
        <mxCell id="gajWKS45nsIWPofKxddW-163" value="employee_name: varchar(255)" style="shape=partialRectangle;connectable=0;fillColor=none;top=0;left=0;bottom=0;right=0;align=left;spacingLeft=6;overflow=hidden;whiteSpace=wrap;html=1;strokeColor=default;verticalAlign=middle;fontFamily=Verdana;fontSize=12;fontColor=default;" parent="gajWKS45nsIWPofKxddW-161" vertex="1">
          <mxGeometry x="30" width="310.6130134828629" height="30" as="geometry">
            <mxRectangle width="310.6130134828629" height="30" as="alternateBounds" />
          </mxGeometry>
        </mxCell>
        <mxCell id="gajWKS45nsIWPofKxddW-164" value="" style="shape=tableRow;horizontal=0;startSize=0;swimlaneHead=0;swimlaneBody=0;fillColor=none;collapsible=0;dropTarget=0;points=[[0,0.5],[1,0.5]];portConstraint=eastwest;top=0;left=0;right=0;bottom=0;strokeColor=default;align=center;verticalAlign=middle;fontFamily=Verdana;fontSize=12;fontColor=default;" parent="gajWKS45nsIWPofKxddW-157" vertex="1">
          <mxGeometry y="93" width="340.6130134828629" height="50" as="geometry" />
        </mxCell>
        <mxCell id="gajWKS45nsIWPofKxddW-165" value="" style="shape=partialRectangle;connectable=0;fillColor=none;top=0;left=0;bottom=0;right=0;editable=1;overflow=hidden;whiteSpace=wrap;html=1;strokeColor=default;align=center;verticalAlign=middle;fontFamily=Verdana;fontSize=12;fontColor=default;" parent="gajWKS45nsIWPofKxddW-164" vertex="1">
          <mxGeometry width="30" height="50" as="geometry">
            <mxRectangle width="30" height="50" as="alternateBounds" />
          </mxGeometry>
        </mxCell>
        <mxCell id="gajWKS45nsIWPofKxddW-166" value="role: enum(&#39;Manager&#39;, &#39;Assistant Manager&#39;, &#39;Chef&#39;, &#39;Assistant Chef&#39;, &#39;Head Waiter&#39;, &#39;Receptionist&#39;)" style="shape=partialRectangle;connectable=0;fillColor=none;top=0;left=0;bottom=0;right=0;align=left;spacingLeft=6;overflow=hidden;whiteSpace=wrap;html=1;strokeColor=default;verticalAlign=middle;fontFamily=Verdana;fontSize=12;fontColor=default;" parent="gajWKS45nsIWPofKxddW-164" vertex="1">
          <mxGeometry x="30" width="310.6130134828629" height="50" as="geometry">
            <mxRectangle width="310.6130134828629" height="50" as="alternateBounds" />
          </mxGeometry>
        </mxCell>
        <mxCell id="gajWKS45nsIWPofKxddW-167" value="" style="shape=tableRow;horizontal=0;startSize=0;swimlaneHead=0;swimlaneBody=0;fillColor=none;collapsible=0;dropTarget=0;points=[[0,0.5],[1,0.5]];portConstraint=eastwest;top=0;left=0;right=0;bottom=0;strokeColor=default;align=center;verticalAlign=middle;fontFamily=Verdana;fontSize=12;fontColor=default;" parent="gajWKS45nsIWPofKxddW-157" vertex="1">
          <mxGeometry y="143" width="340.6130134828629" height="30" as="geometry" />
        </mxCell>
        <mxCell id="gajWKS45nsIWPofKxddW-168" value="" style="shape=partialRectangle;connectable=0;fillColor=none;top=0;left=0;bottom=0;right=0;editable=1;overflow=hidden;whiteSpace=wrap;html=1;strokeColor=default;align=center;verticalAlign=middle;fontFamily=Verdana;fontSize=12;fontColor=default;" parent="gajWKS45nsIWPofKxddW-167" vertex="1">
          <mxGeometry width="30" height="30" as="geometry">
            <mxRectangle width="30" height="30" as="alternateBounds" />
          </mxGeometry>
        </mxCell>
        <mxCell id="gajWKS45nsIWPofKxddW-169" value="salary: real" style="shape=partialRectangle;connectable=0;fillColor=none;top=0;left=0;bottom=0;right=0;align=left;spacingLeft=6;overflow=hidden;whiteSpace=wrap;html=1;strokeColor=default;verticalAlign=middle;fontFamily=Verdana;fontSize=12;fontColor=default;" parent="gajWKS45nsIWPofKxddW-167" vertex="1">
          <mxGeometry x="30" width="310.6130134828629" height="30" as="geometry">
            <mxRectangle width="310.6130134828629" height="30" as="alternateBounds" />
          </mxGeometry>
        </mxCell>
        <mxCell id="gajWKS45nsIWPofKxddW-170" value="" style="shape=tableRow;horizontal=0;startSize=0;swimlaneHead=0;swimlaneBody=0;fillColor=none;collapsible=0;dropTarget=0;points=[[0,0.5],[1,0.5]];portConstraint=eastwest;top=0;left=0;right=0;bottom=0;strokeColor=default;align=center;verticalAlign=middle;fontFamily=Verdana;fontSize=12;fontColor=default;" parent="gajWKS45nsIWPofKxddW-157" vertex="1">
          <mxGeometry y="173" width="340.6130134828629" height="30" as="geometry" />
        </mxCell>
        <mxCell id="gajWKS45nsIWPofKxddW-171" value="" style="shape=partialRectangle;connectable=0;fillColor=none;top=0;left=0;bottom=0;right=0;editable=1;overflow=hidden;whiteSpace=wrap;html=1;strokeColor=default;align=center;verticalAlign=middle;fontFamily=Verdana;fontSize=12;fontColor=default;" parent="gajWKS45nsIWPofKxddW-170" vertex="1">
          <mxGeometry width="30" height="30" as="geometry">
            <mxRectangle width="30" height="30" as="alternateBounds" />
          </mxGeometry>
        </mxCell>
        <mxCell id="gajWKS45nsIWPofKxddW-172" value="contact_number: varchar(20)" style="shape=partialRectangle;connectable=0;fillColor=none;top=0;left=0;bottom=0;right=0;align=left;spacingLeft=6;overflow=hidden;whiteSpace=wrap;html=1;strokeColor=default;verticalAlign=middle;fontFamily=Verdana;fontSize=12;fontColor=default;" parent="gajWKS45nsIWPofKxddW-170" vertex="1">
          <mxGeometry x="30" width="310.6130134828629" height="30" as="geometry">
            <mxRectangle width="310.6130134828629" height="30" as="alternateBounds" />
          </mxGeometry>
        </mxCell>
        <mxCell id="gajWKS45nsIWPofKxddW-173" value="" style="shape=tableRow;horizontal=0;startSize=0;swimlaneHead=0;swimlaneBody=0;fillColor=none;collapsible=0;dropTarget=0;points=[[0,0.5],[1,0.5]];portConstraint=eastwest;top=0;left=0;right=0;bottom=0;strokeColor=default;align=center;verticalAlign=middle;fontFamily=Verdana;fontSize=12;fontColor=default;" parent="gajWKS45nsIWPofKxddW-157" vertex="1">
          <mxGeometry y="203" width="340.6130134828629" height="30" as="geometry" />
        </mxCell>
        <mxCell id="gajWKS45nsIWPofKxddW-174" value="" style="shape=partialRectangle;connectable=0;fillColor=none;top=0;left=0;bottom=0;right=0;editable=1;overflow=hidden;whiteSpace=wrap;html=1;strokeColor=default;align=center;verticalAlign=middle;fontFamily=Verdana;fontSize=12;fontColor=default;" parent="gajWKS45nsIWPofKxddW-173" vertex="1">
          <mxGeometry width="30" height="30" as="geometry">
            <mxRectangle width="30" height="30" as="alternateBounds" />
          </mxGeometry>
        </mxCell>
        <mxCell id="gajWKS45nsIWPofKxddW-175" value="email: varchar(100)" style="shape=partialRectangle;connectable=0;fillColor=none;top=0;left=0;bottom=0;right=0;align=left;spacingLeft=6;overflow=hidden;whiteSpace=wrap;html=1;strokeColor=default;verticalAlign=middle;fontFamily=Verdana;fontSize=12;fontColor=default;" parent="gajWKS45nsIWPofKxddW-173" vertex="1">
          <mxGeometry x="30" width="310.6130134828629" height="30" as="geometry">
            <mxRectangle width="310.6130134828629" height="30" as="alternateBounds" />
          </mxGeometry>
        </mxCell>
        <mxCell id="gajWKS45nsIWPofKxddW-195" value="Order_Item" style="shape=table;startSize=30;container=1;collapsible=1;childLayout=tableLayout;fixedRows=1;rowLines=0;fontStyle=1;align=center;resizeLast=1;html=1;whiteSpace=wrap;strokeColor=default;verticalAlign=middle;fontFamily=Verdana;fontSize=12;fontColor=default;fillColor=default;" parent="1" vertex="1">
          <mxGeometry x="1133.6" y="852" width="208.32854236421122" height="148.14999389648438" as="geometry" />
        </mxCell>
        <mxCell id="gajWKS45nsIWPofKxddW-196" value="" style="shape=tableRow;horizontal=0;startSize=0;swimlaneHead=0;swimlaneBody=0;fillColor=none;collapsible=0;dropTarget=0;points=[[0,0.5],[1,0.5]];portConstraint=eastwest;top=0;left=0;right=0;bottom=0;html=1;strokeColor=default;align=center;verticalAlign=middle;fontFamily=Verdana;fontSize=12;fontColor=default;" parent="gajWKS45nsIWPofKxddW-195" vertex="1">
          <mxGeometry y="30" width="208.32854236421122" height="30" as="geometry" />
        </mxCell>
        <mxCell id="gajWKS45nsIWPofKxddW-197" value="PK,FK1" style="shape=partialRectangle;connectable=0;fillColor=none;top=0;left=0;bottom=0;right=0;fontStyle=1;overflow=hidden;html=1;whiteSpace=wrap;strokeColor=default;align=center;verticalAlign=middle;fontFamily=Verdana;fontSize=12;fontColor=default;" parent="gajWKS45nsIWPofKxddW-196" vertex="1">
          <mxGeometry width="60" height="30" as="geometry">
            <mxRectangle width="60" height="30" as="alternateBounds" />
          </mxGeometry>
        </mxCell>
        <mxCell id="gajWKS45nsIWPofKxddW-198" value="order_id" style="shape=partialRectangle;connectable=0;fillColor=none;top=0;left=0;bottom=0;right=0;align=left;spacingLeft=6;fontStyle=5;overflow=hidden;html=1;whiteSpace=wrap;strokeColor=default;verticalAlign=middle;fontFamily=Verdana;fontSize=12;fontColor=default;" parent="gajWKS45nsIWPofKxddW-196" vertex="1">
          <mxGeometry x="60" width="148.32854236421122" height="30" as="geometry">
            <mxRectangle width="148.32854236421122" height="30" as="alternateBounds" />
          </mxGeometry>
        </mxCell>
        <mxCell id="gajWKS45nsIWPofKxddW-199" value="" style="shape=tableRow;horizontal=0;startSize=0;swimlaneHead=0;swimlaneBody=0;fillColor=none;collapsible=0;dropTarget=0;points=[[0,0.5],[1,0.5]];portConstraint=eastwest;top=0;left=0;right=0;bottom=1;html=1;strokeColor=default;align=center;verticalAlign=middle;fontFamily=Verdana;fontSize=12;fontColor=default;" parent="gajWKS45nsIWPofKxddW-195" vertex="1">
          <mxGeometry y="60" width="208.32854236421122" height="30" as="geometry" />
        </mxCell>
        <mxCell id="gajWKS45nsIWPofKxddW-200" value="PK,FK2" style="shape=partialRectangle;connectable=0;fillColor=none;top=0;left=0;bottom=0;right=0;fontStyle=1;overflow=hidden;html=1;whiteSpace=wrap;strokeColor=default;align=center;verticalAlign=middle;fontFamily=Verdana;fontSize=12;fontColor=default;" parent="gajWKS45nsIWPofKxddW-199" vertex="1">
          <mxGeometry width="60" height="30" as="geometry">
            <mxRectangle width="60" height="30" as="alternateBounds" />
          </mxGeometry>
        </mxCell>
        <mxCell id="gajWKS45nsIWPofKxddW-201" value="menuitem_id" style="shape=partialRectangle;connectable=0;fillColor=none;top=0;left=0;bottom=0;right=0;align=left;spacingLeft=6;fontStyle=5;overflow=hidden;html=1;whiteSpace=wrap;strokeColor=default;verticalAlign=middle;fontFamily=Verdana;fontSize=12;fontColor=default;" parent="gajWKS45nsIWPofKxddW-199" vertex="1">
          <mxGeometry x="60" width="148.32854236421122" height="30" as="geometry">
            <mxRectangle width="148.32854236421122" height="30" as="alternateBounds" />
          </mxGeometry>
        </mxCell>
        <mxCell id="gajWKS45nsIWPofKxddW-202" value="" style="shape=tableRow;horizontal=0;startSize=0;swimlaneHead=0;swimlaneBody=0;fillColor=none;collapsible=0;dropTarget=0;points=[[0,0.5],[1,0.5]];portConstraint=eastwest;top=0;left=0;right=0;bottom=0;html=1;strokeColor=default;align=center;verticalAlign=middle;fontFamily=Verdana;fontSize=12;fontColor=default;" parent="gajWKS45nsIWPofKxddW-195" vertex="1">
          <mxGeometry y="90" width="208.32854236421122" height="28" as="geometry" />
        </mxCell>
        <mxCell id="gajWKS45nsIWPofKxddW-203" value="" style="shape=partialRectangle;connectable=0;fillColor=none;top=0;left=0;bottom=0;right=0;editable=1;overflow=hidden;html=1;whiteSpace=wrap;strokeColor=default;align=center;verticalAlign=middle;fontFamily=Verdana;fontSize=12;fontColor=default;" parent="gajWKS45nsIWPofKxddW-202" vertex="1">
          <mxGeometry width="60" height="28" as="geometry">
            <mxRectangle width="60" height="28" as="alternateBounds" />
          </mxGeometry>
        </mxCell>
        <mxCell id="gajWKS45nsIWPofKxddW-204" value="quantity: int" style="shape=partialRectangle;connectable=0;fillColor=none;top=0;left=0;bottom=0;right=0;align=left;spacingLeft=6;overflow=hidden;html=1;whiteSpace=wrap;strokeColor=default;verticalAlign=middle;fontFamily=Verdana;fontSize=12;fontColor=default;" parent="gajWKS45nsIWPofKxddW-202" vertex="1">
          <mxGeometry x="60" width="148.32854236421122" height="28" as="geometry">
            <mxRectangle width="148.32854236421122" height="28" as="alternateBounds" />
          </mxGeometry>
        </mxCell>
        <mxCell id="gajWKS45nsIWPofKxddW-205" value="" style="shape=tableRow;horizontal=0;startSize=0;swimlaneHead=0;swimlaneBody=0;fillColor=none;collapsible=0;dropTarget=0;points=[[0,0.5],[1,0.5]];portConstraint=eastwest;top=0;left=0;right=0;bottom=0;html=1;strokeColor=default;align=center;verticalAlign=middle;fontFamily=Verdana;fontSize=12;fontColor=default;" parent="gajWKS45nsIWPofKxddW-195" vertex="1">
          <mxGeometry y="118" width="208.32854236421122" height="30" as="geometry" />
        </mxCell>
        <mxCell id="gajWKS45nsIWPofKxddW-206" value="" style="shape=partialRectangle;connectable=0;fillColor=none;top=0;left=0;bottom=0;right=0;editable=1;overflow=hidden;html=1;whiteSpace=wrap;strokeColor=default;align=center;verticalAlign=middle;fontFamily=Verdana;fontSize=12;fontColor=default;" parent="gajWKS45nsIWPofKxddW-205" vertex="1">
          <mxGeometry width="60" height="30" as="geometry">
            <mxRectangle width="60" height="30" as="alternateBounds" />
          </mxGeometry>
        </mxCell>
        <mxCell id="gajWKS45nsIWPofKxddW-207" value="total_item_price: real" style="shape=partialRectangle;connectable=0;fillColor=none;top=0;left=0;bottom=0;right=0;align=left;spacingLeft=6;overflow=hidden;html=1;whiteSpace=wrap;strokeColor=default;verticalAlign=middle;fontFamily=Verdana;fontSize=12;fontColor=default;" parent="gajWKS45nsIWPofKxddW-205" vertex="1">
          <mxGeometry x="60" width="148.32854236421122" height="30" as="geometry">
            <mxRectangle width="148.32854236421122" height="30" as="alternateBounds" />
          </mxGeometry>
        </mxCell>
        <mxCell id="gajWKS45nsIWPofKxddW-241" value="&lt;span style=&quot;text-wrap-mode: wrap;&quot;&gt;MenuItem&lt;/span&gt;" style="shape=table;startSize=30;container=1;collapsible=1;childLayout=tableLayout;fixedRows=1;rowLines=0;fontStyle=1;align=center;resizeLast=1;html=1;strokeColor=default;verticalAlign=middle;fontFamily=Verdana;fontSize=12;fontColor=default;fillColor=default;" parent="1" vertex="1">
          <mxGeometry x="1413" y="852" width="245.19449869791652" height="224.4952099807865" as="geometry" />
        </mxCell>
        <mxCell id="gajWKS45nsIWPofKxddW-242" value="" style="shape=tableRow;horizontal=0;startSize=0;swimlaneHead=0;swimlaneBody=0;fillColor=none;collapsible=0;dropTarget=0;points=[[0,0.5],[1,0.5]];portConstraint=eastwest;top=0;left=0;right=0;bottom=1;strokeColor=default;align=center;verticalAlign=middle;fontFamily=Verdana;fontSize=12;fontColor=default;" parent="gajWKS45nsIWPofKxddW-241" vertex="1">
          <mxGeometry y="30" width="245.19449869791652" height="33" as="geometry" />
        </mxCell>
        <mxCell id="gajWKS45nsIWPofKxddW-243" value="PK" style="shape=partialRectangle;connectable=0;fillColor=none;top=0;left=0;bottom=0;right=0;fontStyle=1;overflow=hidden;whiteSpace=wrap;html=1;strokeColor=default;align=center;verticalAlign=middle;fontFamily=Verdana;fontSize=12;fontColor=default;" parent="gajWKS45nsIWPofKxddW-242" vertex="1">
          <mxGeometry width="30" height="33" as="geometry">
            <mxRectangle width="30" height="33" as="alternateBounds" />
          </mxGeometry>
        </mxCell>
        <mxCell id="gajWKS45nsIWPofKxddW-244" value="menuitem_id: int" style="shape=partialRectangle;connectable=0;fillColor=none;top=0;left=0;bottom=0;right=0;align=left;spacingLeft=6;fontStyle=5;overflow=hidden;whiteSpace=wrap;html=1;strokeColor=default;verticalAlign=middle;fontFamily=Verdana;fontSize=12;fontColor=default;" parent="gajWKS45nsIWPofKxddW-242" vertex="1">
          <mxGeometry x="30" width="215.19449869791652" height="33" as="geometry">
            <mxRectangle width="215.19449869791652" height="33" as="alternateBounds" />
          </mxGeometry>
        </mxCell>
        <mxCell id="gajWKS45nsIWPofKxddW-245" value="" style="shape=tableRow;horizontal=0;startSize=0;swimlaneHead=0;swimlaneBody=0;fillColor=none;collapsible=0;dropTarget=0;points=[[0,0.5],[1,0.5]];portConstraint=eastwest;top=0;left=0;right=0;bottom=0;strokeColor=default;align=center;verticalAlign=middle;fontFamily=Verdana;fontSize=12;fontColor=default;" parent="gajWKS45nsIWPofKxddW-241" vertex="1">
          <mxGeometry y="63" width="245.19449869791652" height="28" as="geometry" />
        </mxCell>
        <mxCell id="gajWKS45nsIWPofKxddW-246" value="" style="shape=partialRectangle;connectable=0;fillColor=none;top=0;left=0;bottom=0;right=0;editable=1;overflow=hidden;whiteSpace=wrap;html=1;strokeColor=default;align=center;verticalAlign=middle;fontFamily=Verdana;fontSize=12;fontColor=default;" parent="gajWKS45nsIWPofKxddW-245" vertex="1">
          <mxGeometry width="30" height="28" as="geometry">
            <mxRectangle width="30" height="28" as="alternateBounds" />
          </mxGeometry>
        </mxCell>
        <mxCell id="gajWKS45nsIWPofKxddW-247" value="item_name: varchar(100&lt;span style=&quot;background-color: transparent; color: light-dark(rgb(0, 0, 0), rgb(255, 255, 255));&quot;&gt;)&lt;/span&gt;" style="shape=partialRectangle;connectable=0;fillColor=none;top=0;left=0;bottom=0;right=0;align=left;spacingLeft=6;overflow=hidden;whiteSpace=wrap;html=1;strokeColor=default;verticalAlign=middle;fontFamily=Verdana;fontSize=12;fontColor=default;" parent="gajWKS45nsIWPofKxddW-245" vertex="1">
          <mxGeometry x="30" width="215.19449869791652" height="28" as="geometry">
            <mxRectangle width="215.19449869791652" height="28" as="alternateBounds" />
          </mxGeometry>
        </mxCell>
        <mxCell id="gajWKS45nsIWPofKxddW-292" value="" style="shape=tableRow;horizontal=0;startSize=0;swimlaneHead=0;swimlaneBody=0;fillColor=none;collapsible=0;dropTarget=0;points=[[0,0.5],[1,0.5]];portConstraint=eastwest;top=0;left=0;right=0;bottom=0;strokeColor=default;align=center;verticalAlign=middle;fontFamily=Verdana;fontSize=12;fontColor=default;" parent="gajWKS45nsIWPofKxddW-241" vertex="1">
          <mxGeometry y="91" width="245.19449869791652" height="30" as="geometry" />
        </mxCell>
        <mxCell id="gajWKS45nsIWPofKxddW-293" value="" style="shape=partialRectangle;connectable=0;fillColor=none;top=0;left=0;bottom=0;right=0;editable=1;overflow=hidden;whiteSpace=wrap;html=1;strokeColor=default;align=center;verticalAlign=middle;fontFamily=Verdana;fontSize=12;fontColor=default;" parent="gajWKS45nsIWPofKxddW-292" vertex="1">
          <mxGeometry width="30" height="30" as="geometry">
            <mxRectangle width="30" height="30" as="alternateBounds" />
          </mxGeometry>
        </mxCell>
        <mxCell id="gajWKS45nsIWPofKxddW-294" value="item_description: tinytext" style="shape=partialRectangle;connectable=0;fillColor=none;top=0;left=0;bottom=0;right=0;align=left;spacingLeft=6;overflow=hidden;whiteSpace=wrap;html=1;strokeColor=default;verticalAlign=middle;fontFamily=Verdana;fontSize=12;fontColor=default;" parent="gajWKS45nsIWPofKxddW-292" vertex="1">
          <mxGeometry x="30" width="215.19449869791652" height="30" as="geometry">
            <mxRectangle width="215.19449869791652" height="30" as="alternateBounds" />
          </mxGeometry>
        </mxCell>
        <mxCell id="gajWKS45nsIWPofKxddW-301" value="" style="shape=tableRow;horizontal=0;startSize=0;swimlaneHead=0;swimlaneBody=0;fillColor=none;collapsible=0;dropTarget=0;points=[[0,0.5],[1,0.5]];portConstraint=eastwest;top=0;left=0;right=0;bottom=0;strokeColor=default;align=center;verticalAlign=middle;fontFamily=Verdana;fontSize=12;fontColor=default;" parent="gajWKS45nsIWPofKxddW-241" vertex="1">
          <mxGeometry y="121" width="245.19449869791652" height="30" as="geometry" />
        </mxCell>
        <mxCell id="gajWKS45nsIWPofKxddW-302" value="" style="shape=partialRectangle;connectable=0;fillColor=none;top=0;left=0;bottom=0;right=0;editable=1;overflow=hidden;whiteSpace=wrap;html=1;strokeColor=default;align=center;verticalAlign=middle;fontFamily=Verdana;fontSize=12;fontColor=default;" parent="gajWKS45nsIWPofKxddW-301" vertex="1">
          <mxGeometry width="30" height="30" as="geometry">
            <mxRectangle width="30" height="30" as="alternateBounds" />
          </mxGeometry>
        </mxCell>
        <mxCell id="gajWKS45nsIWPofKxddW-303" value="price: real" style="shape=partialRectangle;connectable=0;fillColor=none;top=0;left=0;bottom=0;right=0;align=left;spacingLeft=6;overflow=hidden;whiteSpace=wrap;html=1;strokeColor=default;verticalAlign=middle;fontFamily=Verdana;fontSize=12;fontColor=default;" parent="gajWKS45nsIWPofKxddW-301" vertex="1">
          <mxGeometry x="30" width="215.19449869791652" height="30" as="geometry">
            <mxRectangle width="215.19449869791652" height="30" as="alternateBounds" />
          </mxGeometry>
        </mxCell>
        <mxCell id="gajWKS45nsIWPofKxddW-248" value="" style="shape=tableRow;horizontal=0;startSize=0;swimlaneHead=0;swimlaneBody=0;fillColor=none;collapsible=0;dropTarget=0;points=[[0,0.5],[1,0.5]];portConstraint=eastwest;top=0;left=0;right=0;bottom=0;strokeColor=default;align=center;verticalAlign=middle;fontFamily=Verdana;fontSize=12;fontColor=default;" parent="gajWKS45nsIWPofKxddW-241" vertex="1">
          <mxGeometry y="151" width="245.19449869791652" height="43" as="geometry" />
        </mxCell>
        <mxCell id="gajWKS45nsIWPofKxddW-249" value="" style="shape=partialRectangle;connectable=0;fillColor=none;top=0;left=0;bottom=0;right=0;editable=1;overflow=hidden;whiteSpace=wrap;html=1;strokeColor=default;align=center;verticalAlign=middle;fontFamily=Verdana;fontSize=12;fontColor=default;" parent="gajWKS45nsIWPofKxddW-248" vertex="1">
          <mxGeometry width="30" height="43" as="geometry">
            <mxRectangle width="30" height="43" as="alternateBounds" />
          </mxGeometry>
        </mxCell>
        <mxCell id="gajWKS45nsIWPofKxddW-250" value="category: enum(&#39;Starters&#39;, &#39;Main Course&#39;, &#39;Drinks&#39;, &#39;Desserts&#39;)" style="shape=partialRectangle;connectable=0;fillColor=none;top=0;left=0;bottom=0;right=0;align=left;spacingLeft=6;overflow=hidden;whiteSpace=wrap;html=1;strokeColor=default;verticalAlign=middle;fontFamily=Verdana;fontSize=12;fontColor=default;" parent="gajWKS45nsIWPofKxddW-248" vertex="1">
          <mxGeometry x="30" width="215.19449869791652" height="43" as="geometry">
            <mxRectangle width="215.19449869791652" height="43" as="alternateBounds" />
          </mxGeometry>
        </mxCell>
        <mxCell id="gajWKS45nsIWPofKxddW-251" value="" style="shape=tableRow;horizontal=0;startSize=0;swimlaneHead=0;swimlaneBody=0;fillColor=none;collapsible=0;dropTarget=0;points=[[0,0.5],[1,0.5]];portConstraint=eastwest;top=0;left=0;right=0;bottom=0;strokeColor=default;align=center;verticalAlign=middle;fontFamily=Verdana;fontSize=12;fontColor=default;" parent="gajWKS45nsIWPofKxddW-241" vertex="1">
          <mxGeometry y="194" width="245.19449869791652" height="30" as="geometry" />
        </mxCell>
        <mxCell id="gajWKS45nsIWPofKxddW-252" value="FK" style="shape=partialRectangle;connectable=0;fillColor=none;top=0;left=0;bottom=0;right=0;editable=1;overflow=hidden;whiteSpace=wrap;html=1;strokeColor=default;align=center;verticalAlign=middle;fontFamily=Verdana;fontSize=12;fontColor=default;" parent="gajWKS45nsIWPofKxddW-251" vertex="1">
          <mxGeometry width="30" height="30" as="geometry">
            <mxRectangle width="30" height="30" as="alternateBounds" />
          </mxGeometry>
        </mxCell>
        <mxCell id="gajWKS45nsIWPofKxddW-253" value="menu_id: int" style="shape=partialRectangle;connectable=0;fillColor=none;top=0;left=0;bottom=0;right=0;align=left;spacingLeft=6;overflow=hidden;whiteSpace=wrap;html=1;strokeColor=default;verticalAlign=middle;fontFamily=Verdana;fontSize=12;fontColor=default;" parent="gajWKS45nsIWPofKxddW-251" vertex="1">
          <mxGeometry x="30" width="215.19449869791652" height="30" as="geometry">
            <mxRectangle width="215.19449869791652" height="30" as="alternateBounds" />
          </mxGeometry>
        </mxCell>
        <mxCell id="gajWKS45nsIWPofKxddW-257" value="&lt;span style=&quot;text-wrap-mode: wrap;&quot;&gt;Menu&lt;/span&gt;" style="shape=table;startSize=30;container=1;collapsible=1;childLayout=tableLayout;fixedRows=1;rowLines=0;fontStyle=1;align=center;resizeLast=1;html=1;strokeColor=default;verticalAlign=middle;fontFamily=Verdana;fontSize=12;fontColor=default;fillColor=default;" parent="1" vertex="1">
          <mxGeometry x="1739" y="857" width="245.19449869791652" height="93.19518149771363" as="geometry" />
        </mxCell>
        <mxCell id="gajWKS45nsIWPofKxddW-258" value="" style="shape=tableRow;horizontal=0;startSize=0;swimlaneHead=0;swimlaneBody=0;fillColor=none;collapsible=0;dropTarget=0;points=[[0,0.5],[1,0.5]];portConstraint=eastwest;top=0;left=0;right=0;bottom=1;strokeColor=default;align=center;verticalAlign=middle;fontFamily=Verdana;fontSize=12;fontColor=default;" parent="gajWKS45nsIWPofKxddW-257" vertex="1">
          <mxGeometry y="30" width="245.19449869791652" height="33" as="geometry" />
        </mxCell>
        <mxCell id="gajWKS45nsIWPofKxddW-259" value="PK" style="shape=partialRectangle;connectable=0;fillColor=none;top=0;left=0;bottom=0;right=0;fontStyle=1;overflow=hidden;whiteSpace=wrap;html=1;strokeColor=default;align=center;verticalAlign=middle;fontFamily=Verdana;fontSize=12;fontColor=default;" parent="gajWKS45nsIWPofKxddW-258" vertex="1">
          <mxGeometry width="30" height="33" as="geometry">
            <mxRectangle width="30" height="33" as="alternateBounds" />
          </mxGeometry>
        </mxCell>
        <mxCell id="gajWKS45nsIWPofKxddW-260" value="menu_id: int" style="shape=partialRectangle;connectable=0;fillColor=none;top=0;left=0;bottom=0;right=0;align=left;spacingLeft=6;fontStyle=5;overflow=hidden;whiteSpace=wrap;html=1;strokeColor=default;verticalAlign=middle;fontFamily=Verdana;fontSize=12;fontColor=default;" parent="gajWKS45nsIWPofKxddW-258" vertex="1">
          <mxGeometry x="30" width="215.19449869791652" height="33" as="geometry">
            <mxRectangle width="215.19449869791652" height="33" as="alternateBounds" />
          </mxGeometry>
        </mxCell>
        <mxCell id="gajWKS45nsIWPofKxddW-261" value="" style="shape=tableRow;horizontal=0;startSize=0;swimlaneHead=0;swimlaneBody=0;fillColor=none;collapsible=0;dropTarget=0;points=[[0,0.5],[1,0.5]];portConstraint=eastwest;top=0;left=0;right=0;bottom=0;strokeColor=default;align=center;verticalAlign=middle;fontFamily=Verdana;fontSize=12;fontColor=default;" parent="gajWKS45nsIWPofKxddW-257" vertex="1">
          <mxGeometry y="63" width="245.19449869791652" height="30" as="geometry" />
        </mxCell>
        <mxCell id="gajWKS45nsIWPofKxddW-262" value="" style="shape=partialRectangle;connectable=0;fillColor=none;top=0;left=0;bottom=0;right=0;editable=1;overflow=hidden;whiteSpace=wrap;html=1;strokeColor=default;align=center;verticalAlign=middle;fontFamily=Verdana;fontSize=12;fontColor=default;" parent="gajWKS45nsIWPofKxddW-261" vertex="1">
          <mxGeometry width="30" height="30" as="geometry">
            <mxRectangle width="30" height="30" as="alternateBounds" />
          </mxGeometry>
        </mxCell>
        <mxCell id="gajWKS45nsIWPofKxddW-263" value="cuisine: varchar(50)" style="shape=partialRectangle;connectable=0;fillColor=none;top=0;left=0;bottom=0;right=0;align=left;spacingLeft=6;overflow=hidden;whiteSpace=wrap;html=1;strokeColor=default;verticalAlign=middle;fontFamily=Verdana;fontSize=12;fontColor=default;" parent="gajWKS45nsIWPofKxddW-261" vertex="1">
          <mxGeometry x="30" width="215.19449869791652" height="30" as="geometry">
            <mxRectangle width="215.19449869791652" height="30" as="alternateBounds" />
          </mxGeometry>
        </mxCell>
        <mxCell id="gajWKS45nsIWPofKxddW-270" value="" style="edgeStyle=entityRelationEdgeStyle;fontSize=12;html=1;endArrow=ERoneToMany;startArrow=ERmandOne;rounded=0;fontFamily=Verdana;fontColor=default;startSize=8;endSize=8;curved=1;" parent="1" source="gajWKS45nsIWPofKxddW-24" target="gajWKS45nsIWPofKxddW-271" edge="1">
          <mxGeometry width="100" height="100" relative="1" as="geometry">
            <mxPoint x="641" y="1088" as="sourcePoint" />
            <mxPoint x="741" y="988" as="targetPoint" />
          </mxGeometry>
        </mxCell>
        <mxCell id="gajWKS45nsIWPofKxddW-275" value="" style="edgeStyle=entityRelationEdgeStyle;fontSize=12;html=1;endArrow=ERoneToMany;startArrow=ERzeroToOne;rounded=0;fontFamily=Verdana;fontColor=default;startSize=8;endSize=8;curved=1;startFill=0;" parent="1" source="gajWKS45nsIWPofKxddW-53" target="gajWKS45nsIWPofKxddW-43" edge="1">
          <mxGeometry width="100" height="100" relative="1" as="geometry">
            <mxPoint x="651" y="1232" as="sourcePoint" />
            <mxPoint x="751" y="1132" as="targetPoint" />
            <Array as="points">
              <mxPoint x="1061" y="1111" />
            </Array>
          </mxGeometry>
        </mxCell>
        <mxCell id="gajWKS45nsIWPofKxddW-276" value="" style="edgeStyle=entityRelationEdgeStyle;fontSize=12;html=1;endArrow=ERzeroToOne;startArrow=ERmandOne;rounded=0;fontFamily=Verdana;fontColor=default;startSize=8;endSize=8;curved=1;endFill=0;" parent="1" source="gajWKS45nsIWPofKxddW-46" target="gajWKS45nsIWPofKxddW-75" edge="1">
          <mxGeometry width="100" height="100" relative="1" as="geometry">
            <mxPoint x="1054" y="834" as="sourcePoint" />
            <mxPoint x="1154" y="734" as="targetPoint" />
          </mxGeometry>
        </mxCell>
        <mxCell id="gajWKS45nsIWPofKxddW-277" value="" style="edgeStyle=entityRelationEdgeStyle;fontSize=12;html=1;endArrow=ERzeroToMany;startArrow=ERmandOne;rounded=0;fontFamily=Verdana;fontColor=default;startSize=8;endSize=8;curved=1;endFill=0;" parent="1" source="gajWKS45nsIWPofKxddW-107" target="gajWKS45nsIWPofKxddW-78" edge="1">
          <mxGeometry width="100" height="100" relative="1" as="geometry">
            <mxPoint x="721" y="862" as="sourcePoint" />
            <mxPoint x="821" y="762" as="targetPoint" />
          </mxGeometry>
        </mxCell>
        <mxCell id="gajWKS45nsIWPofKxddW-278" value="" style="edgeStyle=entityRelationEdgeStyle;fontSize=12;html=1;endArrow=ERoneToMany;startArrow=ERmandOne;rounded=0;fontFamily=Verdana;fontColor=default;startSize=8;endSize=8;curved=1;" parent="1" source="gajWKS45nsIWPofKxddW-24" target="gajWKS45nsIWPofKxddW-110" edge="1">
          <mxGeometry width="100" height="100" relative="1" as="geometry">
            <mxPoint x="171.81" y="913" as="sourcePoint" />
            <mxPoint x="279.81" y="965" as="targetPoint" />
            <Array as="points">
              <mxPoint x="658" y="971" />
              <mxPoint x="304" y="822" />
            </Array>
          </mxGeometry>
        </mxCell>
        <mxCell id="gajWKS45nsIWPofKxddW-279" value="" style="edgeStyle=entityRelationEdgeStyle;fontSize=12;html=1;endArrow=ERoneToMany;startArrow=ERmandOne;rounded=0;fontFamily=Verdana;fontColor=default;startSize=8;endSize=8;curved=1;" parent="1" source="gajWKS45nsIWPofKxddW-37" target="gajWKS45nsIWPofKxddW-196" edge="1">
          <mxGeometry width="100" height="100" relative="1" as="geometry">
            <mxPoint x="1002.81" y="913" as="sourcePoint" />
            <mxPoint x="1110.81" y="965" as="targetPoint" />
          </mxGeometry>
        </mxCell>
        <mxCell id="gajWKS45nsIWPofKxddW-280" value="" style="edgeStyle=entityRelationEdgeStyle;fontSize=12;html=1;endArrow=ERoneToMany;startArrow=ERmandOne;rounded=0;fontFamily=Verdana;fontColor=default;startSize=8;endSize=8;curved=1;" parent="1" source="gajWKS45nsIWPofKxddW-242" target="gajWKS45nsIWPofKxddW-199" edge="1">
          <mxGeometry width="100" height="100" relative="1" as="geometry">
            <mxPoint x="1380.81" y="904" as="sourcePoint" />
            <mxPoint x="1533.81" y="897" as="targetPoint" />
          </mxGeometry>
        </mxCell>
        <mxCell id="gajWKS45nsIWPofKxddW-281" value="" style="edgeStyle=entityRelationEdgeStyle;fontSize=12;html=1;endArrow=ERoneToMany;startArrow=ERmandOne;rounded=0;fontFamily=Verdana;fontColor=default;startSize=8;endSize=8;curved=1;" parent="1" source="gajWKS45nsIWPofKxddW-258" target="gajWKS45nsIWPofKxddW-242" edge="1">
          <mxGeometry width="100" height="100" relative="1" as="geometry">
            <mxPoint x="1744.59" y="899" as="sourcePoint" />
            <mxPoint x="1662.59" y="927" as="targetPoint" />
          </mxGeometry>
        </mxCell>
        <mxCell id="gajWKS45nsIWPofKxddW-287" value="" style="edgeStyle=entityRelationEdgeStyle;fontSize=12;html=1;endArrow=ERoneToMany;startArrow=ERzeroToOne;rounded=0;fontFamily=Verdana;fontColor=default;startSize=8;endSize=8;curved=1;startFill=0;" parent="1" source="gajWKS45nsIWPofKxddW-158" target="gajWKS45nsIWPofKxddW-282" edge="1">
          <mxGeometry width="100" height="100" relative="1" as="geometry">
            <mxPoint x="988" y="1521" as="sourcePoint" />
            <mxPoint x="1088" y="1421" as="targetPoint" />
            <Array as="points">
              <mxPoint x="1045" y="1245" />
            </Array>
          </mxGeometry>
        </mxCell>
        <mxCell id="gajWKS45nsIWPofKxddW-291" value="" style="edgeStyle=entityRelationEdgeStyle;fontSize=12;html=1;endArrow=ERoneToMany;startArrow=ERmandOne;rounded=0;fontFamily=Verdana;fontColor=default;startSize=8;endSize=8;curved=1;" parent="1" source="gajWKS45nsIWPofKxddW-24" target="gajWKS45nsIWPofKxddW-56" edge="1">
          <mxGeometry width="100" height="100" relative="1" as="geometry">
            <mxPoint x="621" y="1250" as="sourcePoint" />
            <mxPoint x="721" y="1150" as="targetPoint" />
          </mxGeometry>
        </mxCell>
        <mxCell id="gajWKS45nsIWPofKxddW-306" value="Relational Model" style="text;strokeColor=none;align=center;fillColor=none;html=1;verticalAlign=middle;whiteSpace=wrap;rounded=0;fontSize=49;fontFamily=Verdana;fontColor=default;fontStyle=2" parent="1" vertex="1">
          <mxGeometry x="776.9978049045137" y="318.00441731770826" width="428" height="71" as="geometry" />
        </mxCell>
      </root>
    </mxGraphModel>
  </diagram>
</mxfile>
